<?xml version="1.0" encoding="utf-8"?>
<!-- Generator: Adobe Illustrator 28.3.0, SVG Export Plug-In . SVG Version: 6.00 Build 0)  -->
<svg version="1.1" id="Capa_1" xmlns="http://www.w3.org/2000/svg" xmlns:xlink="http://www.w3.org/1999/xlink" x="0px" y="0px"
	 viewBox="0 0 87.2 84.9" style="enable-background:new 0 0 87.2 84.9;" xml:space="preserve">
<style type="text/css">
	.st0{fill:#FFFFFF;}
	.st1{clip-path:url(#SVGID_00000163774702223256116750000015472183520970844045_);}
</style>
<g>
	<ellipse id="Elipse_1" class="st0" cx="43.6" cy="42.4" rx="42.9" ry="41.8"/>
	<g id="Grupo_23">
		<g>
			<defs>
				<rect id="SVGID_1_" x="13.4" y="9.8" width="60" height="66.1"/>
			</defs>
			<clipPath id="SVGID_00000034800414221743446840000015203780663397764793_">
				<use xlink:href="#SVGID_1_"  style="overflow:visible;"/>
			</clipPath>
			<g style="clip-path:url(#SVGID_00000034800414221743446840000015203780663397764793_);">
				<g id="Grupo_22">
					<path id="Trazado_17" d="M50,43.5c-2,0-4.2-0.5-6.7-1.6c-1.2-0.5-2.4-1.1-3.5-1.8c-0.2-0.2-0.3-0.5-0.2-0.7s0.5-0.3,0.7-0.2
						l0,0c0.1,0,5.5,3.4,10,3.2c1.3-0.4,2.6-1.1,3.6-2c2.4-2.1,3.5-5,3.4-8.7c-0.1-0.4-0.7-5.6-1-7.7c-0.3-2.2-2.9-6.6-2.9-6.6
						c-0.1-0.2-0.1-0.6,0.2-0.7s0.6-0.1,0.7,0.2c0,0,0,0,0,0c0.1,0.2,2.7,4.7,3.1,7c0.3,2.3,1,7.7,1,7.8c0,0,0,0,0,0
						c0.2,5.1-2,8-3.8,9.6c-1.2,1-2.6,1.8-4.1,2.2c0,0-0.1,0-0.1,0C50.3,43.5,50.2,43.5,50,43.5"/>
					<path id="Trazado_18" d="M51.8,26.9c-0.2,0-0.4-0.2-0.4-0.4c0-0.1,0-0.2,0.1-0.2c0.6-0.9,2.3-2.3,4.4-1.5
						c0.2,0.1,0.3,0.2,0.3,0.4v0.6c0,0.2-0.2,0.4-0.4,0.4c-0.1,0-0.3-0.1-0.4-0.2l-0.3-0.5c0,0,0,0,0-0.1c-0.7-0.1-1.4,0-1.9,0.4
						c-0.4,0.3-0.7,0.6-1,0.9C52.1,26.9,51.9,26.9,51.8,26.9"/>
					<path id="Trazado_19" d="M52.3,32.6c-0.2,0-0.4-0.2-0.4-0.4c0-0.2,0.1-0.3,0.2-0.4c0.2-0.1,0.7-0.4,0.8-0.9
						c0-0.2,0.3-0.4,0.5-0.3c0.2,0,0.4,0.3,0.3,0.5c0,0,0,0,0,0c-0.3,0.9-1.2,1.4-1.2,1.4C52.4,32.6,52.4,32.6,52.3,32.6"/>
					<path id="Trazado_20" d="M45.6,32.3c-0.2,0-0.3-0.1-0.4-0.3l-0.3-0.9c-0.1-0.2,0-0.5,0.2-0.5c0.2-0.1,0.5,0,0.5,0.2
						c0,0,0,0,0,0l0.3,0.9c0.1,0.2,0,0.5-0.3,0.5C45.7,32.3,45.6,32.3,45.6,32.3"/>
					<path id="Trazado_21" d="M43.9,32.8c-0.2,0-0.4-0.2-0.4-0.4l0,0v-1c0-0.2,0.2-0.4,0.4-0.4c0.2,0,0.4,0.2,0.4,0.4v1
						C44.3,32.6,44.1,32.8,43.9,32.8L43.9,32.8"/>
					<path id="Trazado_22" d="M41.3,25.9c-0.2,0-0.4-0.2-0.4-0.4c0-0.1,0-0.2,0.1-0.3c1.4-1.1,3.1-1.7,4.8-1.8
						c0.2,0,0.4,0.2,0.4,0.4c0,0.2-0.2,0.4-0.4,0.4c0,0,0,0,0,0c-1.6,0-3.1,0.6-4.3,1.6C41.5,25.9,41.4,25.9,41.3,25.9"/>
					<path id="Trazado_23" d="M55.9,23.2c-0.1,0-0.1,0-0.2,0c-1.7-0.7-3.3,0-3.3,0c-0.2,0.1-0.5,0-0.5-0.3c-0.1-0.2,0-0.4,0.2-0.5
						c1.3-0.5,2.7-0.5,3.9,0c0.2,0.1,0.3,0.3,0.2,0.5C56.2,23.1,56.1,23.2,55.9,23.2"/>
					<path id="Trazado_24" d="M54,26.4c0,0.4-0.4,0.8-0.8,0.8s-0.8-0.4-0.8-0.8s0.4-0.8,0.8-0.8l0,0C53.7,25.5,54,25.9,54,26.4"/>
					<path id="Trazado_25" d="M53.2,27.4c-0.6,0-1.1-0.5-1.1-1.1c0-0.6,0.5-1.1,1.1-1.1s1.1,0.5,1.1,1.1l0,0
						C54.3,27,53.8,27.4,53.2,27.4 M53.2,25.8c-0.3,0-0.5,0.2-0.5,0.5c0,0.3,0.2,0.5,0.5,0.5c0.3,0,0.5-0.2,0.5-0.5l0,0
						C53.8,26.1,53.5,25.8,53.2,25.8"/>
					<path id="Trazado_26" d="M45.1,28.1c0,0.5-0.4,0.9-0.9,0.9s-0.9-0.4-0.9-0.9c0-0.5,0.4-0.9,0.9-0.9S45.1,27.6,45.1,28.1
						L45.1,28.1"/>
					<path id="Trazado_27" d="M44.2,29.3c-0.6,0-1.2-0.5-1.2-1.2s0.5-1.2,1.2-1.2c0.6,0,1.2,0.5,1.2,1.2l0,0
						C45.4,28.8,44.8,29.3,44.2,29.3 M44.2,27.5c-0.3,0-0.6,0.3-0.6,0.6s0.3,0.6,0.6,0.6s0.6-0.3,0.6-0.6l0,0
						C44.8,27.8,44.5,27.5,44.2,27.5"/>
					<path id="Trazado_28" d="M42.1,28.9c-0.2,0-0.3-0.1-0.4-0.3l-0.2-0.5c-0.1-0.2,0-0.4,0.1-0.5c2.3-2,5-0.5,5.1-0.4
						c0.2,0.1,0.2,0.4,0.1,0.6c-0.1,0.2-0.3,0.2-0.5,0.1c-0.1,0-1.9-1.1-3.6,0c0,0,0,0.1,0,0.1l-0.1,0.6
						C42.5,28.7,42.3,28.9,42.1,28.9C42.1,28.9,42.1,28.9,42.1,28.9"/>
					<path id="Trazado_29" d="M48.9,39.9c0,0.2-0.2,0.4-0.4,0.4s-0.4-0.2-0.4-0.4s0.2-0.4,0.4-0.4S48.9,39.6,48.9,39.9L48.9,39.9"/>
					<path id="Trazado_30" d="M55.8,27.4c0,0.2-0.1,0.3-0.3,0.3s-0.3-0.1-0.3-0.3c0-0.2,0.1-0.3,0.3-0.3l0,0
						C55.7,27.1,55.8,27.3,55.8,27.4L55.8,27.4"/>
					<path id="Trazado_31" d="M50.6,37c-0.6,0-1.3-0.1-1.9-0.2c-0.2-0.1-0.3-0.3-0.3-0.5c0.1-0.2,0.3-0.3,0.5-0.3
						c0,0,2.3,0.7,3.8-0.4c0.2-0.1,0.5-0.1,0.6,0.1c0.1,0.2,0.1,0.4-0.1,0.5C52.4,36.8,51.5,37,50.6,37"/>
					<path id="Trazado_32" d="M13.8,67.3c-0.2,0-0.4-0.2-0.4-0.4c0,0,0-0.1,0-0.1c0,0,0.9-2.5,2.2-5.4c1.7-3.8,3.2-6.4,4.4-7.7
						c1.6-1.6,7.2-4.2,7.5-4.3c0.2-0.1,0.5,0,0.5,0.2c0.1,0.2,0,0.4-0.2,0.5c-0.1,0-5.7,2.6-7.2,4.2c-2.8,2.9-6.4,12.7-6.4,12.8
						C14.1,67.2,14,67.3,13.8,67.3"/>
					<path id="Trazado_33" d="M73,61.8c-0.2,0-0.3-0.1-0.4-0.2c-1.6-2.9-5.6-7-8.3-8.7c-1.1-0.7-2.4-1.2-3.8-1.4
						c-0.5-0.1-1.1-0.1-1.6,0c-0.2,0-0.4-0.1-0.5-0.4c0-0.2,0.1-0.4,0.3-0.4c0.1,0,2.9-0.4,6,1.5c2.9,1.8,7,6,8.6,9.1
						c0.1,0.2,0,0.5-0.2,0.6C73.1,61.8,73.1,61.8,73,61.8"/>
					<path id="Trazado_34" d="M49.6,51.1c-2,0-5.6-0.5-9.6-3.2c-0.2-0.1-0.3-0.4-0.1-0.6s0.4-0.3,0.6-0.1c0,0,0,0,0,0
						c5.8,3.9,10.6,3,10.7,2.9c0.2-0.1,0.4,0.1,0.5,0.3c0.1,0.2-0.1,0.4-0.3,0.5c0,0,0,0,0,0C50.7,51,50.1,51.1,49.6,51.1"/>
					<path id="Trazado_35" d="M49.3,52.6L49.3,52.6c-3.4,0-6.6-0.9-9.5-2.6c-0.2-0.1-0.3-0.4-0.2-0.6c0.1-0.2,0.4-0.3,0.6-0.2
						c0,0,0,0,0,0c6.6,3.9,12.9,2,12.9,2c0.2-0.1,0.4,0.1,0.5,0.3c0,0.2-0.1,0.4-0.3,0.5C53.3,52.1,51.7,52.6,49.3,52.6"/>
					<path id="Trazado_36" d="M52.2,43.5c-1.3,0.9-3,1.2-4.6,0.7c-2.6-0.8-7.5-3.7-7.5-3.7l8.4,2.7l3.5-0.3L52.2,43.5L52.2,43.5z"/>
					<path id="Trazado_37" d="M49.2,44.9c-0.6,0-1.1-0.1-1.7-0.3c-2.6-0.8-7.3-3.6-7.5-3.8c-0.2-0.1-0.3-0.4-0.1-0.6
						c0.1-0.2,0.3-0.2,0.5-0.2l8.3,2.7l3.4-0.3c0.2,0,0.4,0.1,0.4,0.3l0.1,0.6c0,0.1,0,0.3-0.2,0.4C51.5,44.5,50.4,44.9,49.2,44.9
						 M44.1,42.2c1.3,0.7,2.7,1.3,3.7,1.6c1.3,0.4,2.8,0.2,3.9-0.5l-3.1,0.3c-0.1,0-0.1,0-0.2,0C48.4,43.6,44.1,42.2,44.1,42.2z"/>
					<path id="Trazado_38" d="M61.3,72.8c-0.2,0-0.3-0.1-0.4-0.3c-0.9-2.5-1.3-6.2-1.4-10.9c0-3.5,0.2-6.2,0.2-6.3
						c0-0.2,0.2-0.4,0.5-0.4c0.2,0,0.4,0.2,0.4,0.4c0,0.1-0.9,11,1.1,16.8c0.1,0.2,0,0.5-0.3,0.5C61.4,72.8,61.4,72.8,61.3,72.8"/>
					<path id="Trazado_39" d="M26.3,75.9c-0.2,0-0.4-0.2-0.4-0.4c0,0,0-0.1,0-0.1c2.7-9.5,1.3-16.9,1.2-17c0-0.2,0.1-0.4,0.3-0.5
						c0.2,0,0.4,0.1,0.5,0.3c0,0.1,1.5,7.7-1.2,17.4C26.7,75.8,26.5,75.9,26.3,75.9"/>
					<path id="Trazado_40" d="M26.8,73.5C26.8,73.5,26.8,73.5,26.8,73.5c-0.3,0-0.4-0.2-0.4-0.4c0.3-3.9-2.8-9.5-2.8-9.5
						c-0.1-0.2,0-0.5,0.2-0.6c0.2-0.1,0.4,0,0.5,0.2c0.1,0.2,3.2,5.9,2.9,10C27.2,73.3,27,73.5,26.8,73.5"/>
					<path id="Trazado_41" d="M50.5,43.5c0,0-1.8,4.4-1.2,7.1c0.6,2.7,1.8,4.9,2.2,5.3c0.4,0.4-1.3-2.3-0.9-6.4c0,0,0.2,3.4,3.8,2.5
						c0,0-2.7-1.7-2.3-5.9c0,0,2,7.9,7.2,5.3c0,0-2.8-0.8-3.3-5.6c0,0,1.9,4.3,4.7,4.9l1.7,0.8c0,0,0.5-5-0.6-9.7
						c-1-4.7-1.6-8.7-1.6-8.7s2.1,2.3,2.2,5c0,0,0.7-1.8-2.3-7.9c0,0-0.9-2.4-2-6.9c-1-4.6-1.3-7.6-4.9-10.6s-6-1.9-6-1.9
						s-0.3,0.3-0.5,0.6c-0.1,0.1-0.2,0.3-0.1,0.5c0.1,0.2,0.2,0.3,0.3,0.4c0.3,0.2,0.8,0.5,0.9,0.9c0.2,0.7,0.8,1.3,1.6,1.4
						c0.9,0.2,2.1,1.2,2.6,2.6s1.4,3.9,2.7,4.3c0,0-0.8-0.8-0.8-3.6l2.6,4.7l1,6l0.3,5.3l-0.9,3.5l-2,3l-3,2.1L50.5,43.5L50.5,43.5z
						"/>
					<path id="Trazado_42" d="M51.6,56.4c-0.1,0-0.3-0.1-0.3-0.2c-0.5-0.5-1.8-2.8-2.4-5.5c-0.6-2.8,1.1-7.2,1.2-7.3
						c0-0.1,0.1-0.2,0.2-0.2l1.5-0.9l2.9-2l1.9-2.9l0.8-3.3l-0.2-5.3l-1-6l-1.6-2.9c0.2,1,0.5,1.4,0.5,1.4c0.1,0.1,0.2,0.3,0.1,0.5
						c-0.1,0.2-0.3,0.2-0.5,0.2c-1.3-0.4-2.1-2.4-2.9-4.4l-0.1-0.2c-0.5-1.3-1.6-2.2-2.3-2.3c-0.9-0.2-1.5-0.8-1.9-1.7
						c-0.1-0.2-0.3-0.5-0.7-0.7c-0.2-0.1-0.4-0.3-0.5-0.6c-0.1-0.3-0.1-0.7,0.2-0.9c0.2-0.3,0.5-0.6,0.6-0.6c0,0,0.1-0.1,0.1-0.1
						c0.6-0.2,1.3-0.3,1.9-0.2c1.9,0.2,3.5,1.3,4.6,2.2c3.2,2.8,3.8,5.5,4.7,9.4c0.1,0.5,0.2,0.9,0.3,1.4c1,4.3,1.9,6.6,1.9,6.9
						c3,6.1,2.4,8,2.3,8.2c-0.1,0.2-0.3,0.3-0.5,0.2c-0.1-0.1-0.2-0.2-0.3-0.4c0-1.3-0.6-2.5-1.1-3.4c0.2,1.6,0.7,4.2,1.3,7
						c1,4.7,0.6,9.6,0.6,9.8c0,0.2-0.2,0.4-0.5,0.4c0,0-0.1,0-0.1,0L60.7,51c-1.4-0.3-2.6-1.4-3.4-2.6c0.9,2,2.2,2.5,2.3,2.5
						c0.2,0.1,0.3,0.3,0.3,0.5c0,0.1-0.1,0.2-0.2,0.3c-1.4,0.7-2.7,0.7-3.9,0.2c-1.3-0.6-2.3-1.9-2.9-3.2c0.5,2,1.9,2.8,1.9,2.9
						c0.2,0.1,0.3,0.4,0.1,0.6c-0.1,0.1-0.1,0.2-0.2,0.2c-1.2,0.3-2.3,0.2-3-0.4c-0.2-0.1-0.4-0.3-0.5-0.5c0.1,1.4,0.4,2.7,0.9,3.9
						c0.1,0.3,0.2,0.6-0.1,0.8C51.8,56.3,51.7,56.4,51.6,56.4 M51.9,55.6L51.9,55.6z M50.9,43.8c-0.3,0.7-1.6,4.4-1.1,6.7
						c0.1,0.6,0.3,1.3,0.5,1.9c-0.1-1-0.1-1.9,0-2.9c0-0.2,0.2-0.4,0.5-0.4c0.2,0,0.3,0.2,0.4,0.4c0,0,0.1,1.3,1,1.9
						c0.4,0.3,1,0.4,1.5,0.4c-0.8-0.9-2-2.6-1.7-5.7c0-0.2,0.2-0.4,0.5-0.4c0.2,0,0.3,0.1,0.4,0.3c0,0,1,4.1,3.5,5.2
						c0.7,0.3,1.6,0.4,2.4,0.1c-0.9-0.7-2.4-2.2-2.7-5.5c0-0.2,0.1-0.4,0.4-0.5c0.2,0,0.3,0.1,0.4,0.2c0,0,1.8,4.1,4.4,4.6
						c0,0,0.1,0,0.1,0l1.1,0.5c0.1-1.5,0.2-5.4-0.6-9c-1-4.6-1.6-8.7-1.6-8.7c0-0.2,0.1-0.4,0.4-0.5c0.1,0,0.3,0,0.4,0.1
						c0.2,0.3,0.4,0.5,0.6,0.8c-0.4-1.1-0.9-2.2-1.4-3.3c0,0,0,0,0,0c0-0.1-1-2.5-2-7c-0.1-0.5-0.2-1-0.3-1.4
						c-0.8-3.8-1.4-6.3-4.4-8.9c-3-2.5-5.1-2-5.5-1.8c-0.1,0.1-0.3,0.3-0.5,0.5c0,0,0,0.1,0,0.1c0,0.1,0.1,0.1,0.1,0.2
						c0.4,0.2,0.9,0.6,1.1,1.2c0.2,0.7,0.6,1,1.2,1.2c1.1,0.3,2.3,1.4,2.9,2.8l0.1,0.2c0.3,0.9,0.7,1.7,1.1,2.5
						c-0.1-0.6-0.2-1.3-0.1-1.9c0-0.2,0.2-0.4,0.4-0.4c0.2,0,0.3,0.1,0.4,0.2l2.6,4.7c0,0,0,0.1,0,0.1l1,6c0,0,0,0,0,0l0.3,5.3
						c0,0,0,0.1,0,0.1l-0.9,3.5c0,0,0,0.1-0.1,0.1l-2,3c0,0-0.1,0.1-0.1,0.1l-3,2.1c0,0,0,0,0,0L50.9,43.8L50.9,43.8z"/>
					<path id="Trazado_43" d="M46.2,10.4c0,0-3.2-0.5-6.3,0.3c-3.1,0.8-6.8,1.8-10.2,10.5c-0.8,2.7-1.8,5.4-3,8c0,0,1.9-1.3,2.5-3.3
						c0,0-2.5,5.7-2.2,11.5s0,5.3,0.1,7.4s-0.3,8.3,3.6,13.5c0,0-0.5,6.9,3.7,11c0,0-3-6.7-0.8-16.9c0,0-0.8,11,2.2,14.7
						c0,0,1.2-4.8,1.2-8.4s1-3.4,1-6.7l0.2-5.1c0,0,0.8,2.8,0.4,8.8c-0.2,3.8,0.1,7.6,1,11.3c-0.1-4.7,0.1-9.3,0.6-14
						c0.8-7.2,0.5-12.6,0.5-12.6s-0.1-6.1-1-9.6s1.1-9.4,1.1-9.4v3.9c0,0,0.6-4,1.8-5.9c0,0-0.3,3.9,0.4,5.5c0,0,0.3-3.8,1.8-6.6v4
						c0,0,0.5-5.1,1.8-6.8c1-1.4,0.3-1.9,0-2c-0.1-0.1-0.3-0.1-0.4-0.2c-0.3-0.3-0.8-0.7-0.7-1.4C45.5,11.2,45.8,10.7,46.2,10.4"/>
					<path id="Trazado_44" d="M34.4,69.5c-0.1,0-0.2,0-0.3-0.1c-4-3.8-3.9-10-3.9-11.1c-3.5-4.6-3.5-10.1-3.6-12.7
						c0-0.3,0-0.6,0-0.9c0-0.6,0-1.1,0-1.7c0-0.8,0.1-2-0.1-5.6c-0.2-3.2,0.5-6.3,1.1-8.5c-0.2,0.2-0.5,0.5-0.8,0.7
						c-0.2,0.1-0.4,0.1-0.6-0.1c-0.1-0.1-0.1-0.3,0-0.4c1.2-2.5,2.2-5.2,3-7.9c0,0,0,0,0,0c3.5-8.8,7.3-9.9,10.5-10.7l0.1,0
						c3.2-0.8,6.4-0.3,6.5-0.3c0.2,0,0.4,0.3,0.3,0.5c0,0.1-0.1,0.2-0.2,0.3c-0.3,0.3-0.5,0.6-0.5,1.1c0,0.4,0.3,0.8,0.6,1
						c0.1,0.1,0.2,0.1,0.3,0.2c0.3,0.1,0.6,0.4,0.7,0.8c0.1,0.5,0,1.1-0.6,1.9c-1.2,1.6-1.7,6.6-1.7,6.6c0,0.2-0.2,0.4-0.5,0.4
						c-0.2,0-0.4-0.2-0.4-0.4v-1.9c-0.5,1.5-0.8,3-0.9,4.6c0,0.2-0.2,0.4-0.4,0.4c-0.1,0-0.3-0.1-0.3-0.2c-0.4-0.8-0.5-2.3-0.5-3.5
						c-0.4,1.2-0.7,2.5-0.9,3.8c0,0.2-0.3,0.4-0.5,0.3c-0.2,0-0.3-0.2-0.3-0.4v-0.9c-0.4,1.9-0.8,4.5-0.3,6.3c0.9,3.5,1,9.3,1.1,9.7
						c0.1,4.2,0,8.4-0.5,12.6c-0.5,4.6-0.7,9.3-0.6,13.9c0,0.2-0.2,0.4-0.4,0.4c-0.2,0-0.4-0.1-0.4-0.3c0-0.1-1.5-5.4-1.1-11.4
						c0-0.7,0.1-1.4,0.1-2c-0.1,0.6-0.2,1.1-0.4,1.7c-0.3,0.8-0.5,1.6-0.5,3.4c0,3.6-1.2,8.3-1.3,8.5c-0.1,0.2-0.3,0.4-0.5,0.3
						c-0.1,0-0.2-0.1-0.2-0.1c-1.4-1.7-2-4.8-2.2-7.7c0,5.8,1.6,9.4,1.6,9.4c0.1,0.2,0,0.5-0.2,0.5C34.5,69.4,34.4,69.5,34.4,69.5
						 M29.2,26.6c-0.6,1.7-2.1,6.1-1.9,10.6c0.2,3.7,0.1,4.8,0.1,5.7c0,0.5,0,1.1,0,1.6c0,0.3,0,0.6,0,0.9c0,2.5,0.1,7.9,3.5,12.3
						c0.1,0.1,0.1,0.2,0.1,0.3c0,0.1-0.3,5.2,2.2,9c-0.2-0.9-0.4-1.8-0.6-2.6c-0.6-4.1-0.5-8.3,0.4-12.4c0.1-0.2,0.3-0.4,0.5-0.3
						c0.2,0,0.3,0.2,0.3,0.4c0,0.1-0.7,9.5,1.6,13.6c0.4-1.6,1-4.8,1-7.4c0-1.9,0.3-2.8,0.6-3.7c0.3-1,0.5-2,0.5-3.1v0l0.2-5.1
						c0-0.2,0.2-0.4,0.4-0.4c0.2,0,0.3,0.1,0.4,0.3c0,0.1,0.8,2.9,0.4,8.9c-0.1,2.2-0.1,4.5,0.2,6.7c0.1-2.6,0.2-6,0.6-9.5
						c0.8-7.1,0.5-12.4,0.5-12.5v0c0-0.1-0.1-6.1-1-9.5c-1-3.6,1.1-9.4,1.1-9.7c0.1-0.2,0.3-0.3,0.5-0.3c0.2,0.1,0.3,0.2,0.3,0.4
						v0.2c0.2-0.8,0.6-1.6,1-2.4c0.1-0.2,0.4-0.3,0.6-0.1c0.1,0.1,0.2,0.2,0.2,0.4c-0.1,1-0.1,2,0,2.9c0.3-1.3,0.7-2.9,1.4-4.3
						c0.1-0.2,0.4-0.3,0.6-0.2c0.1,0,0.1,0.1,0.1,0.1c0.3-1.1,0.6-2.1,1.1-2.8c0.5-0.7,0.5-1,0.4-1.2c0-0.1-0.1-0.2-0.2-0.3
						c-0.2-0.1-0.3-0.2-0.5-0.3c-0.7-0.5-1-1.1-0.9-1.7c0-0.3,0.1-0.7,0.3-1c-1.1-0.1-3.3-0.2-5.4,0.4l-0.1,0
						c-3.1,0.8-6.6,1.8-9.9,10.2c-0.6,2-1.3,4-2.1,5.9c0.2-0.3,0.4-0.5,0.5-0.8c0.2-0.4,0.3-0.6,0.3-0.7c0.1-0.2,0.3-0.3,0.5-0.2
						c0.2,0.1,0.3,0.3,0.2,0.5C29.4,26.2,29.3,26.4,29.2,26.6"/>
					<path id="Trazado_45" class="st0" d="M35.6,35.2c-0.4,0-0.8,0-1.2,0c-0.3,0-0.6-0.1-0.8-0.2c-2-0.8-2.1-3-2.1-3
						c0.1-4.8,3.9-2.8,3.9-2.8L35.6,35.2L35.6,35.2z"/>
					<path id="Trazado_46" d="M35.8,29.2c0-0.2-0.1-0.3-0.2-0.4c-0.1,0-1.8-0.9-3.1-0.1c-0.9,0.5-1.4,1.6-1.4,3.3v0
						c0,0.1,0.1,1.7,1.3,2.7c0.4,0.3,0.8,0.5,1.2,0.7c0,0,0,0,0,0V35c0.3,0.1,0.5,0.2,0.8,0.2v0.2c0,0.1,0,0.1,0,0.2
						c0.2,0,0.4,0,0.7,0c0.2,0,0.4,0,0.7,0c0.2,0,0.4-0.2,0.4-0.4L35.8,29.2L35.8,29.2z M33.6,34.6c-0.2-0.1-0.5-0.2-0.7-0.4
						c-0.9-0.8-1-2-1-2.1c0-1.3,0.4-2.2,1-2.6c0.7-0.4,1.7-0.1,2.1,0l0.2,5.3c-0.3,0-0.5,0-0.8,0C34.1,34.7,33.8,34.7,33.6,34.6"/>
					<path id="Trazado_47" d="M35.6,32.9c-0.2,0-0.3-0.1-0.4-0.3c-0.3-0.8-1-1.3-1.9-1.3c-0.2,0-0.4-0.2-0.4-0.4
						c0-0.2,0.2-0.4,0.4-0.4c1.2,0,2.3,0.7,2.7,1.8c0.1,0.2,0,0.5-0.2,0.5C35.7,32.9,35.7,32.9,35.6,32.9"/>
					<path id="Trazado_48" d="M33.9,33.2L33.9,33.2c-0.2,0-0.4-0.2-0.4-0.4c0-0.1,0-0.8,0.5-1.3c0.3-0.3,0.6-0.4,1-0.4
						c0.2,0,0.4,0.2,0.4,0.4c0,0.2-0.2,0.4-0.4,0.4c-0.1,0-0.7,0-0.7,0.9C34.3,33.1,34.1,33.2,33.9,33.2"/>
					<path id="Trazado_49" class="st0" d="M34.4,35.2v0.2c0,0.2-0.2,0.4-0.4,0.4c-0.2,0-0.4-0.2-0.4-0.4c0,0,0,0,0,0V35
						C33.8,35.1,34.1,35.2,34.4,35.2"/>
					<path id="Trazado_50" d="M34.4,34.5v0.7c-0.3,0-0.6-0.1-0.8-0.2v-0.5c0-0.2,0.2-0.4,0.4-0.4C34.2,34.1,34.4,34.3,34.4,34.5"/>
					<path id="Trazado_51" d="M49.6,14.6c0,0,1.9,1.7,2,4.8l0.3-3.7L49.6,14.6L49.6,14.6z"/>
					<path id="Trazado_52" d="M51.6,19.8L51.6,19.8c-0.2,0-0.4-0.2-0.4-0.4c-0.1-2.9-1.8-4.4-1.8-4.5c-0.2-0.2-0.2-0.4,0-0.6
						c0.1-0.1,0.3-0.2,0.5-0.1l2.3,1c0.2,0.1,0.3,0.2,0.2,0.4L52,19.4C52,19.6,51.8,19.8,51.6,19.8 M50.9,15.7
						c0.2,0.3,0.3,0.6,0.5,1l0.1-0.7L50.9,15.7L50.9,15.7z"/>
					<path id="Trazado_53" d="M64.5,24.8c-0.2,0-0.4-0.2-0.4-0.4v-1.2c0-0.2,0.2-0.4,0.4-0.4c0.2,0,0.3,0.2,0.4,0.4v1.2
						C64.9,24.6,64.7,24.8,64.5,24.8"/>
					<path id="Trazado_54" d="M64.5,28.1c-0.2,0-0.4-0.2-0.4-0.4v-1.2c0-0.2,0.2-0.4,0.4-0.4c0.2,0,0.4,0.2,0.4,0.4c0,0,0,0,0,0v1.2
						C64.9,27.9,64.7,28.1,64.5,28.1"/>
					<path id="Trazado_55" d="M66.6,25.8h-1.2c-0.2,0-0.4-0.2-0.4-0.4c0-0.2,0.2-0.3,0.4-0.4h1.2c0.2,0,0.4,0.2,0.4,0.4
						C66.9,25.7,66.8,25.8,66.6,25.8"/>
					<path id="Trazado_56" d="M63.6,25.8h-1.2c-0.2,0-0.4-0.2-0.4-0.4c0-0.2,0.2-0.3,0.4-0.4h1.2c0.2,0,0.4,0.2,0.4,0.4
						C64,25.7,63.8,25.8,63.6,25.8"/>
					<path id="Trazado_57" d="M21.9,46.3c-0.2,0-0.4-0.2-0.4-0.4v-1.2c0-0.2,0.2-0.4,0.4-0.4c0.2,0,0.3,0.2,0.4,0.4v1.2
						C22.3,46.1,22.1,46.3,21.9,46.3"/>
					<path id="Trazado_58" d="M21.9,49.6c-0.2,0-0.4-0.2-0.4-0.4v-1.2c0-0.2,0.2-0.4,0.4-0.4c0.2,0,0.3,0.2,0.4,0.4v1.2
						C22.3,49.4,22.1,49.6,21.9,49.6"/>
					<path id="Trazado_59" d="M24,47.4h-1.2c-0.2,0-0.4-0.2-0.4-0.4c0-0.2,0.2-0.3,0.4-0.4H24c0.2,0,0.4,0.2,0.4,0.4
						C24.4,47.2,24.2,47.4,24,47.4C24,47.4,24,47.4,24,47.4"/>
					<path id="Trazado_60" d="M21,47.4h-1.2c-0.2,0-0.4-0.2-0.4-0.4c0-0.2,0.2-0.3,0.4-0.4H21c0.2,0,0.4,0.2,0.4,0.4
						C21.4,47.2,21.2,47.4,21,47.4C21,47.4,21,47.4,21,47.4"/>
					<path id="Trazado_61" class="st0" d="M57.8,39c0.3,1,0.4,2,0.1,3c-0.4,1.7-1.3,3-0.9,4.8c0,0,0,0.1,0,0.1c0,0-0.1,0-0.1,0
						c-0.3-1.4,0.1-2.6,0.6-3.9C57.9,41.6,58.1,40.3,57.8,39C57.7,39,57.7,38.9,57.8,39C57.7,38.9,57.8,38.9,57.8,39"/>
					<path id="Trazado_62" class="st0" d="M38.9,20.2c-0.2,0-0.4-0.2-0.4-0.4c0-0.1,0-0.1,0-0.2l0.7-1.6c0.1-0.2,0.3-0.3,0.5-0.2
						s0.3,0.3,0.2,0.5c0,0,0,0,0,0L39.3,20C39.3,20.1,39.1,20.2,38.9,20.2"/>
					<path id="Trazado_63" class="st0" d="M36.7,20.7c-0.2,0-0.4-0.2-0.4-0.4c0,0,0-0.1,0-0.1l0.4-1c0.1-0.2,0.3-0.3,0.5-0.2
						c0.2,0.1,0.3,0.3,0.2,0.5l-0.4,1C37,20.6,36.8,20.7,36.7,20.7"/>
					<path id="Trazado_64" class="st0" d="M34.2,21.4c-0.2,0-0.4-0.2-0.4-0.4c0,0,0-0.1,0-0.1l0.9-1.9c0.1-0.2,0.3-0.3,0.5-0.2
						s0.3,0.3,0.2,0.5l-0.9,1.9C34.5,21.3,34.4,21.4,34.2,21.4"/>
					<path id="Trazado_65" class="st0" d="M35.7,43.2c0.1,1.9-0.3,3.8-0.8,5.6c-0.6,1.8-1.4,3.6-2.5,5.1c0,0,0,0-0.1,0
						c0,0,0,0,0-0.1c0.3-0.4,0.5-0.8,0.8-1.2c1.4-2.5,2.3-5.2,2.5-8c0-0.5,0.1-0.9,0-1.4C35.6,43.1,35.6,43.1,35.7,43.2
						C35.7,43.1,35.7,43.1,35.7,43.2"/>
					<path id="Trazado_66" class="st0" d="M38.2,55.2c0,0,0.3-2.7,0.4-4.4c0,0-0.2,2.4-0.5,3.5c-0.2,0.6-0.3,1.3-0.4,2L38.2,55.2
						L38.2,55.2z"/>
					<path id="Trazado_67" class="st0" d="M37.7,56.3C37.7,56.3,37.6,56.3,37.7,56.3C37.6,56.3,37.6,56.3,37.7,56.3
						c0-0.7,0.2-1.4,0.4-2c0.3-1.1,0.5-3.5,0.5-3.5c0,0,0,0,0.1,0c0,0,0,0,0,0.1c-0.1,1.7-0.4,4.4-0.4,4.5c0,0,0,0,0,0L37.7,56.3
						C37.7,56.3,37.7,56.3,37.7,56.3 M38.3,53.3c-0.1,0.4-0.1,0.7-0.2,1c-0.2,0.7-0.3,1.3-0.4,1.6l0.4-0.7
						C38.1,55.1,38.2,54.3,38.3,53.3 M38.2,55.2L38.2,55.2z"/>
					<path id="Trazado_68" class="st0" d="M33.9,65.8c0,0-1.2-3.6-0.6-10.6c0,0-0.6,6.1,0.9,10.4L33.9,65.8L33.9,65.8z"/>
					<path id="Trazado_69" class="st0" d="M33.9,65.8C33.9,65.8,33.9,65.8,33.9,65.8C33.9,65.8,33.9,65.8,33.9,65.8
						c-0.1-0.1-1.3-3.7-0.7-10.4c0-0.1,0-0.2,0-0.2c0,0,0,0,0.1,0c0,0,0,0,0,0.1c0,0.1,0,0.1,0,0.2c-0.1,1.1-0.4,6.4,0.9,10.1
						c0,0,0,0,0,0.1L33.9,65.8C34,65.8,33.9,65.8,33.9,65.8 M33.2,60.5c0.1,3.1,0.6,4.8,0.7,5.2l0.2-0.1
						C33.6,64,33.3,62.2,33.2,60.5"/>
				</g>
			</g>
		</g>
	</g>
</g>
</svg>
